<?xml version="1.0" encoding="utf-8"?>
<!-- Generator: Adobe Illustrator 22.1.0, SVG Export Plug-In . SVG Version: 6.00 Build 0)  -->
<svg version="1.1" id="Layer_1" xmlns="http://www.w3.org/2000/svg" xmlns:xlink="http://www.w3.org/1999/xlink" x="0px" y="0px"
	 viewBox="0 0 391 264" style="enable-background:new 0 0 391 264;" xml:space="preserve">
<style type="text/css">
	.st0{fill:#BEC331;}
	.st1{fill:#573393;}
	.st2{fill:#C1C600;}
</style>
<path class="st0" d="M135.7,71.9l-65,0l0,25.7l35.5,0c-2.5,19.4-16.3,32.2-35.2,32.2c-23.4,0-39-20.6-39-51.2
	c0-31.6,15-51.2,39.1-51.2c14,0,24.1,6.3,31.9,19.7l2.3,4l22-17.6l-2-3C111.8,10.3,94.5,0.9,70.6,0.9c-19.6,0-37,7.7-49,21.7
	C9.1,37.2,2.7,56,2.7,78.6c0,23,6.2,41.3,18.9,55.9C34,148.8,51,156.4,70.8,156.4c26.5,0,46.3-13,58.9-38.7
	c5.3-10.8,7.4-24.9,6.3-42L135.7,71.9z"/>
<polygon class="st0" points="150.9,153.5 264,153.5 264,126.9 179.2,126.9 179.2,88.5 259,88.5 259,62.6 179.2,62.6 179.2,30.4 
	264,30.4 264,4 150.9,4 "/>
<polygon class="st0" points="306.9,126.9 307,4 278.7,4 278.6,153.5 388.1,153.5 388.1,126.9 "/>
<path class="st1" d="M93,192.8l9.2,0l0,52.5l-9.2,0L93,192.8z"/>
<path class="st1" d="M110,192.8l37.8,0l0,7.9l-28.6,0l0,13.7l26.5,0l0,7.5l-26.5,0l0,15.4l29.1,0l0,7.9l-38.3,0L110,192.8z"/>
<path class="st1" d="M155.2,192.8l9.2,0l0,44.5l26.7,0l0,7.9l-35.9,0L155.2,192.8z"/>
<path class="st1" d="M184.5,192.8l42.5,0l0,7.9l-16.7,0l0,44.5l-9.2,0l0-44.5l-16.6,0L184.5,192.8z"/>
<path class="st1" d="M238,227.8c0,2,0.3,3.7,1,5.1c0.7,1.4,1.6,2.6,2.9,3.5c1.2,0.9,2.6,1.6,4.2,2c1.6,0.4,3.3,0.6,5.2,0.6
	c2,0,3.7-0.2,5.1-0.7c1.4-0.5,2.6-1.1,3.5-1.8c0.9-0.7,1.5-1.6,1.9-2.5c0.4-1,0.6-1.9,0.6-2.9c0-2-0.5-3.5-1.4-4.4
	c-0.9-1-1.9-1.6-3-2c-1.9-0.7-4-1.3-6.5-1.9c-2.5-0.6-5.5-1.4-9.2-2.4c-2.3-0.6-4.1-1.4-5.6-2.3c-1.5-1-2.7-2-3.6-3.2
	c-0.9-1.2-1.5-2.4-1.9-3.7c-0.4-1.3-0.6-2.7-0.6-4c0-2.6,0.6-4.9,1.7-6.9c1.1-1.9,2.6-3.5,4.4-4.8c1.8-1.3,3.9-2.2,6.2-2.8
	c2.3-0.6,4.6-0.9,7-0.9c2.7,0,5.3,0.4,7.8,1.1c2.4,0.7,4.6,1.8,6.4,3.2c1.8,1.4,3.3,3.2,4.4,5.3c1.1,2.1,1.6,4.5,1.6,7.2l-9.2,0
	c-0.2-3.4-1.4-5.8-3.5-7.2c-2.1-1.4-4.7-2.1-7.9-2.1c-1.1,0-2.2,0.1-3.3,0.3c-1.1,0.2-2.2,0.6-3.1,1.1c-0.9,0.5-1.7,1.2-2.3,2.1
	c-0.6,0.9-0.9,2-0.9,3.3c0,1.9,0.6,3.3,1.7,4.4c1.2,1.1,2.7,1.9,4.5,2.4c0.2,0,1,0.3,2.3,0.6c1.3,0.4,2.9,0.8,4.5,1.2
	c1.7,0.4,3.3,0.9,4.9,1.3c1.6,0.4,2.7,0.7,3.4,0.9c1.7,0.5,3.2,1.3,4.5,2.2c1.3,0.9,2.3,2,3.2,3.2c0.9,1.2,1.5,2.5,1.9,3.9
	c0.4,1.4,0.6,2.7,0.6,4.1c0,2.9-0.6,5.5-1.8,7.5c-1.2,2.1-2.8,3.8-4.7,5.1c-2,1.3-4.2,2.3-6.7,2.9c-2.5,0.6-5,0.9-7.6,0.9
	c-3,0-5.8-0.4-8.5-1.1c-2.6-0.7-5-1.9-6.9-3.4c-2-1.5-3.5-3.5-4.7-5.8c-1.2-2.4-1.8-5.2-1.8-8.4L238,227.8z"/>
<g>
	<path class="st1" d="M293.5,217.9l0,3.7l0.1,0c0.7-1.5,1.9-2.6,3.5-3.3c1.6-0.7,3.3-1,5.2-1c2.1,0,3.9,0.4,5.5,1.2
		c1.6,0.8,2.8,1.8,3.9,3.1c1,1.3,1.8,2.8,2.3,4.5c0.5,1.7,0.8,3.5,0.8,5.4c0,1.9-0.3,3.7-0.8,5.4c-0.5,1.7-1.3,3.2-2.3,4.5
		c-1,1.3-2.3,2.3-3.9,3c-1.6,0.7-3.4,1.1-5.4,1.1c-0.7,0-1.4-0.1-2.2-0.2c-0.8-0.1-1.6-0.4-2.4-0.7c-0.8-0.3-1.6-0.7-2.3-1.3
		c-0.7-0.5-1.3-1.2-1.8-2l-0.1,0l0,13.9l-4.5,0l0-37.4L293.5,217.9z M309.5,227.6c-0.3-1.2-0.8-2.3-1.5-3.2
		c-0.7-0.9-1.6-1.7-2.6-2.3c-1.1-0.6-2.3-0.8-3.7-0.8c-1.5,0-2.8,0.3-3.8,0.9c-1,0.6-1.9,1.4-2.6,2.3c-0.7,1-1.1,2-1.4,3.3
		c-0.3,1.2-0.4,2.5-0.4,3.7c0,1.3,0.2,2.6,0.5,3.8c0.3,1.2,0.8,2.3,1.5,3.3c0.7,0.9,1.6,1.7,2.6,2.3c1.1,0.6,2.4,0.9,3.9,0.9
		c1.5,0,2.8-0.3,3.8-0.9c1-0.6,1.9-1.4,2.5-2.4c0.6-1,1.1-2.1,1.4-3.4c0.3-1.3,0.4-2.5,0.4-3.9C310,230,309.8,228.8,309.5,227.6z"/>
	<path class="st1" d="M323.2,218l0,5.7l0.1,0c1.1-2.2,2.4-3.8,4-4.9c1.6-1,3.6-1.5,6-1.5l0,4.7c-1.8,0-3.3,0.2-4.6,0.7
		c-1.3,0.5-2.3,1.2-3,2.1c-0.8,0.9-1.3,2.1-1.7,3.4c-0.4,1.3-0.5,2.9-0.5,4.6l0,12l-4.4,0l0-27.1L323.2,218z"/>
	<path class="st1" d="M354,243.3c-2,1.5-4.6,2.3-7.6,2.3c-2.2,0-4-0.3-5.6-1c-1.6-0.7-2.9-1.7-4-2.9c-1.1-1.3-1.9-2.8-2.4-4.5
		c-0.5-1.7-0.8-3.6-0.9-5.7c0-2.1,0.3-3.9,0.9-5.7c0.6-1.7,1.5-3.2,2.6-4.4c1.1-1.3,2.5-2.2,4-2.9c1.6-0.7,3.3-1,5.1-1
		c2.4,0,4.4,0.5,6,1.5c1.6,1,2.9,2.3,3.8,3.8c1,1.5,1.6,3.2,2,5c0.4,1.8,0.5,3.5,0.4,5.2l-20.3,0c0,1.2,0.1,2.3,0.4,3.4
		c0.3,1.1,0.8,2,1.5,2.8c0.7,0.8,1.6,1.5,2.7,2c1.1,0.5,2.4,0.7,3.8,0.7c1.9,0,3.4-0.4,4.6-1.3c1.2-0.9,2-2.2,2.4-4l4.4,0
		C357.4,239.5,356.1,241.8,354,243.3z M353,225.9c-0.4-0.9-0.9-1.8-1.6-2.4c-0.7-0.7-1.5-1.2-2.4-1.6c-0.9-0.4-1.9-0.6-3.1-0.6
		c-1.2,0-2.2,0.2-3.1,0.6c-0.9,0.4-1.7,1-2.4,1.6c-0.7,0.7-1.2,1.5-1.6,2.4c-0.4,0.9-0.6,1.9-0.7,3l15.5,0
		C353.6,227.9,353.4,226.9,353,225.9z"/>
	<path class="st1" d="M366.8,218l0,3.7l0.1,0c0.7-1.5,1.9-2.6,3.5-3.3c1.6-0.7,3.3-1,5.2-1c2.1,0,3.9,0.4,5.5,1.2
		c1.6,0.8,2.8,1.8,3.9,3.1c1,1.3,1.8,2.8,2.3,4.5c0.5,1.7,0.8,3.5,0.8,5.4c0,1.9-0.3,3.7-0.8,5.4c-0.5,1.7-1.3,3.2-2.3,4.5
		c-1,1.3-2.3,2.3-3.9,3c-1.6,0.7-3.4,1.1-5.4,1.1c-0.7,0-1.4-0.1-2.2-0.2c-0.8-0.1-1.6-0.4-2.4-0.7c-0.8-0.3-1.6-0.7-2.3-1.3
		c-0.7-0.5-1.3-1.2-1.8-2l-0.1,0l0,13.9l-4.5,0l0-37.4L366.8,218z M382.8,227.6c-0.3-1.2-0.8-2.3-1.5-3.2c-0.7-0.9-1.6-1.7-2.6-2.3
		c-1.1-0.6-2.3-0.8-3.7-0.8c-1.5,0-2.8,0.3-3.8,0.9c-1,0.6-1.9,1.4-2.6,2.3c-0.7,1-1.1,2-1.4,3.3c-0.3,1.2-0.4,2.5-0.4,3.7
		c0,1.3,0.2,2.6,0.5,3.8c0.3,1.2,0.8,2.3,1.5,3.3c0.7,0.9,1.6,1.7,2.6,2.3c1.1,0.6,2.4,0.9,3.9,0.9c1.5,0,2.8-0.3,3.8-0.9
		c1-0.6,1.9-1.4,2.5-2.4c0.6-1,1.1-2.1,1.4-3.4c0.3-1.3,0.4-2.5,0.4-3.9C383.3,230,383.1,228.8,382.8,227.6z"/>
</g>
<g>
	<path class="st2" d="M75,199.8c-12-5.8-34-12.7-44.7-14c-4.6-0.6-7.1,0-10.3,3.9c-3.1,3.9-13.5,23.6-16.9,32.8
		c-1.6,4.3-1.5,6.5,0.4,10.6c4.2,8.9,20.6,22.1,26.9,26.4c6.4,4.2,14.4,4.1,19.2-0.4c1.3-1.2,2.9-2.9,4.8-4.9l0,0c0,0,0,0-0.1,0.1
		c-2.1,0.4-4.4,0.6-6.6,0.6c-11.4-0.1-23.7-4.8-30-13.4c-3.5-4.9-5.1-10.5-5.1-16.1c0-11.3,6.9-22.5,19-27.5c3-1.3,6.1-1.8,9.1-1.8
		c9.8,0,18.5,6.3,21.8,15.5c0.8,2.2,1.1,4.5,1.1,6.8c0,6.8-3.2,13.5-9.3,17.1c-4.2,2.4-8.7,3.6-12.8,3.6c-6.5,0-12.5-2.7-15.6-7.7
		c-1.3-2.1-2-4.4-2-6.7c0-5,3.1-9.6,8-12.5c2.6-1.6,5.2-2.3,7.7-2.3c2.9,0,5.6,1,7.6,2.6c2,1.6,3.3,4.1,3.3,6.8
		c0,0.9-0.2,1.9-0.5,2.8c-0.9,2.4-3,3.9-5.6,5c-2.6,1.1-5.9,1.8-9.6,1.8c-1.5,0-3.1-0.1-4.7-0.4c0,0,0,0.1,0.1,0.1
		c1.8,3.1,6.1,5.3,11.3,5.2c3.3,0,6.8-0.9,10.3-2.9c4.2-2.4,6.7-7.4,6.7-12.6c0-1.7-0.3-3.5-0.9-5.1c-2.5-7.2-9.3-12.1-16.9-12.1
		c-2.3,0-4.8,0.5-7.2,1.5C23.6,206.7,18,216,18,225.3c0,4.6,1.3,9.1,4.2,13.1c4.7,6.8,15.8,11.2,25.8,11.3c4.9,0,8.9-0.6,12.5-3
		c0.7-0.5,1.3-0.9,1.9-1.4c6.4-7.4,16-19.7,20.1-27.3C86.5,210.7,82.3,203.4,75,199.8z"/>
	<path class="st2" d="M42.7,222.2c1.9-0.8,2.7-1.8,2.7-2c0.1-0.4,0.2-0.8,0.2-1.1c0-1-0.5-2-1.5-2.8c-1-0.8-2.5-1.4-4.3-1.4
		c-1.5,0-3.3,0.4-5.1,1.5c-3.1,1.9-4.8,4.3-5.3,6.7c2,0.4,3.9,0.6,5.7,0.6C38.2,223.6,40.8,223,42.7,222.2z"/>
</g>
</svg>
