<?xml version="1.0" encoding="utf-8"?>
<!-- Generator: Adobe Illustrator 21.1.0, SVG Export Plug-In . SVG Version: 6.00 Build 0)  -->
<svg version="1.1" id="Layer_1" xmlns="http://www.w3.org/2000/svg" xmlns:xlink="http://www.w3.org/1999/xlink" x="0px" y="0px"
	 viewBox="0 0 1090 768" style="enable-background:new 0 0 1090 768;" xml:space="preserve">
<style type="text/css">
	.st0{fill:#BEC331;}
	.st1{fill:#573393;}
	.st2{fill:#C1C600;}
	.st3{fill:#FFFFFF;}
</style>
<path class="st0" d="M376.6,215.5l-182.8,0l0,72.1l99.9,0c-7.1,54.6-45.7,90.5-99,90.5C129.1,378.2,85,320.4,85,234.4
	c0-88.7,42.1-143.8,109.8-143.8c39.3,0,67.8,17.6,89.6,55.5l6.5,11.3l61.9-49.4l-5.6-8.5c-37.6-57-86.3-83.6-153.5-83.6
	c-55,0-103.9,21.6-137.7,60.8C20.8,117.8,2.9,170.8,2.9,234.3C2.9,299,20.3,350.4,56,391.5c34.7,40.1,82.5,61.4,138.2,61.4
	c74.4,0,130.1-36.6,165.5-108.9c14.9-30.2,20.8-69.9,17.6-118L376.6,215.5z"/>
<polygon class="st0" points="419.3,444.7 737.2,444.8 737.2,370.1 498.9,370 498.9,262 723.3,262.1 723.3,189.4 498.9,189.4 
	498.9,98.8 737.2,98.9 737.3,24.7 419.4,24.6 "/>
<polygon class="st0" points="858,370.1 858.1,24.7 778.5,24.7 778.4,444.8 1086,444.8 1086,370.1 "/>
<path class="st1" d="M256.8,555.2l25.8,0l0,147.5l-25.8,0L256.8,555.2z"/>
<path class="st1" d="M304.4,555.2l106.2,0l0,22.3l-80.4,0l0,38.6l74.4,0l0,21.1l-74.4,0l0,43.2l81.8,0l0,22.3l-107.6,0L304.4,555.2z
	"/>
<path class="st1" d="M431.5,555.2l25.8,0l0,125.2l75,0l0,22.3l-100.8,0L431.5,555.2z"/>
<path class="st1" d="M513.9,555.2l119.4,0l0,22.3l-46.9,0l0,125.2l-25.8,0l0-125.2l-46.7,0L513.9,555.2z"/>
<path class="st1" d="M664.3,653.6c0,5.6,1,10.5,2.9,14.5c1.9,4,4.6,7.3,8.1,9.8c3.4,2.6,7.4,4.4,11.9,5.6c4.5,1.2,9.3,1.8,14.6,1.8
	c5.6,0,10.5-0.7,14.5-2c4-1.3,7.2-3,9.7-5.1c2.5-2.1,4.3-4.4,5.4-7.1c1.1-2.7,1.7-5.4,1.7-8.2c0-5.6-1.3-9.8-3.8-12.5
	c-2.5-2.7-5.3-4.6-8.4-5.7c-5.2-1.9-11.3-3.8-18.3-5.5c-7-1.7-15.5-4-25.7-6.7c-6.3-1.7-11.6-3.8-15.8-6.5c-4.2-2.7-7.5-5.7-10-9
	c-2.5-3.3-4.2-6.8-5.3-10.5c-1-3.7-1.5-7.5-1.5-11.4c0-7.4,1.6-13.9,4.7-19.3c3.1-5.4,7.2-9.9,12.3-13.5c5.1-3.6,10.9-6.2,17.4-7.9
	c6.5-1.7,13-2.6,19.6-2.6c7.7,0,15,1,21.8,3c6.8,2,12.8,5,18,9c5.2,4,9.3,8.9,12.3,14.8c3,5.9,4.5,12.6,4.5,20.4l-25.8,0
	c-0.7-9.5-3.9-16.2-9.7-20.1c-5.8-3.9-13.2-5.9-22.1-5.9c-3,0-6.1,0.3-9.3,0.9c-3.2,0.6-6.1,1.6-8.7,3.1c-2.6,1.4-4.8,3.4-6.5,5.9
	c-1.7,2.5-2.6,5.6-2.6,9.3c0,5.2,1.6,9.3,4.9,12.3c3.2,3,7.5,5.2,12.7,6.7c0.6,0.1,2.7,0.7,6.5,1.8c3.8,1,8,2.2,12.7,3.4
	c4.7,1.2,9.3,2.4,13.7,3.6c4.5,1.2,7.7,2,9.6,2.6c4.8,1.5,9,3.6,12.6,6.2c3.6,2.6,6.6,5.6,9,9c2.4,3.4,4.2,7,5.4,10.8
	c1.2,3.9,1.8,7.7,1.8,11.6c0,8.3-1.7,15.3-5.1,21.2c-3.4,5.9-7.8,10.6-13.3,14.4c-5.5,3.7-11.8,6.4-18.8,8.2
	c-7,1.7-14.2,2.6-21.5,2.6c-8.4,0-16.3-1-23.8-3.1c-7.4-2.1-13.9-5.2-19.4-9.5c-5.5-4.3-9.9-9.7-13.2-16.4c-3.3-6.7-5-14.6-5.2-23.7
	L664.3,653.6z"/>
<g>
	<path class="st1" d="M820.3,625.9l0,10.3l0.3,0c2.1-4.2,5.3-7.3,9.7-9.2c4.4-1.9,9.3-2.9,14.6-2.9c5.9,0,11,1.1,15.4,3.2
		c4.4,2.2,8,5.1,10.9,8.8c2.9,3.7,5.1,7.9,6.5,12.7c1.5,4.8,2.2,9.9,2.2,15.3c0,5.4-0.7,10.5-2.1,15.3c-1.4,4.8-3.6,9-6.5,12.6
		c-2.9,3.6-6.5,6.4-10.9,8.5c-4.4,2.1-9.4,3.1-15.2,3.1c-1.9,0-4-0.2-6.3-0.6c-2.3-0.4-4.6-1-6.8-1.9c-2.3-0.9-4.4-2.1-6.4-3.6
		c-2-1.5-3.7-3.4-5.1-5.7l-0.3,0l0,39.1l-12.5,0l0-105.1L820.3,625.9z M865.2,652.9c-0.9-3.4-2.4-6.4-4.3-9
		c-1.9-2.6-4.4-4.8-7.4-6.3c-3-1.6-6.5-2.4-10.5-2.4c-4.2,0-7.8,0.8-10.7,2.5c-2.9,1.7-5.3,3.9-7.2,6.6c-1.9,2.7-3.2,5.8-4,9.2
		c-0.8,3.4-1.3,6.9-1.3,10.4c0,3.7,0.4,7.3,1.3,10.8c0.9,3.5,2.3,6.5,4.2,9.2c1.9,2.6,4.4,4.8,7.4,6.4c3,1.6,6.7,2.4,11,2.4
		c4.3,0,7.9-0.8,10.8-2.5c2.9-1.7,5.2-3.9,7-6.6c1.8-2.7,3-5.9,3.8-9.4c0.8-3.5,1.2-7.2,1.2-10.9
		C866.6,659.8,866.2,656.3,865.2,652.9z"/>
	<path class="st1" d="M903.7,625.9l0,16h0.3c3-6.2,6.8-10.7,11.2-13.7c4.4-2.9,10-4.3,16.8-4.1l0,13.2c-5,0-9.3,0.7-12.8,2.1
		c-3.5,1.4-6.4,3.4-8.5,6c-2.2,2.6-3.7,5.9-4.7,9.6c-1,3.8-1.5,8.1-1.5,13l0,33.8l-12.5,0l0-76.1L903.7,625.9z"/>
	<path class="st1" d="M990.4,697.2c-5.7,4.3-12.9,6.5-21.5,6.5c-6.1,0-11.4-1-15.8-2.9c-4.5-2-8.2-4.7-11.3-8.2
		c-3-3.5-5.3-7.7-6.8-12.7c-1.5-4.9-2.4-10.2-2.6-16c0-5.8,0.9-11.1,2.6-15.9c1.8-4.8,4.2-9,7.4-12.5c3.2-3.5,7-6.3,11.3-8.2
		c4.4-2,9.1-2.9,14.3-2.9c6.8,0,12.4,1.4,16.8,4.2c4.5,2.8,8,6.4,10.7,10.7c2.7,4.3,4.6,9,5.6,14.1c1,5.1,1.4,10,1.2,14.6l-56.9,0
		c-0.1,3.3,0.3,6.5,1.2,9.5c0.9,3,2.3,5.6,4.3,7.9c2,2.3,4.5,4.1,7.5,5.5c3,1.4,6.6,2.1,10.7,2.1c5.3,0,9.6-1.2,13-3.7
		c3.4-2.4,5.6-6.2,6.7-11.2l12.4,0C999.7,686.4,996,692.8,990.4,697.2z M987.3,648.3c-1.1-2.6-2.6-4.9-4.6-6.8
		c-1.9-1.9-4.2-3.4-6.8-4.6c-2.6-1.1-5.5-1.7-8.6-1.7c-3.2,0-6.2,0.6-8.8,1.7c-2.6,1.1-4.8,2.7-6.7,4.6c-1.9,2-3.3,4.2-4.4,6.8
		c-1.1,2.6-1.7,5.4-1.9,8.3l43.7,0C989.1,653.8,988.5,651,987.3,648.3z"/>
	<path class="st1" d="M1026.3,626l0,10.3l0.3,0c2.1-4.2,5.3-7.3,9.7-9.2c4.4-1.9,9.3-2.9,14.6-2.9c5.9,0,11,1.1,15.4,3.2
		c4.4,2.2,8,5.1,10.9,8.8c2.9,3.7,5.1,7.9,6.5,12.7c1.5,4.8,2.2,9.9,2.2,15.3c0,5.4-0.7,10.5-2.1,15.3c-1.4,4.8-3.6,9-6.5,12.6
		c-2.9,3.6-6.5,6.4-10.9,8.5c-4.4,2.1-9.4,3.1-15.2,3.1c-1.9,0-4-0.2-6.3-0.6c-2.3-0.4-4.6-1-6.8-1.9c-2.3-0.9-4.4-2.1-6.4-3.6
		c-2-1.5-3.7-3.4-5.1-5.7l-0.3,0l0,39.1l-12.5,0l0-105.1L1026.3,626z M1071.2,653c-0.9-3.4-2.4-6.4-4.3-9c-1.9-2.6-4.4-4.8-7.4-6.3
		c-3-1.6-6.5-2.4-10.5-2.4c-4.2,0-7.8,0.8-10.7,2.5c-2.9,1.7-5.3,3.9-7.2,6.6c-1.9,2.7-3.2,5.8-4,9.2c-0.8,3.4-1.3,6.9-1.3,10.4
		c0,3.7,0.4,7.3,1.3,10.8c0.9,3.5,2.3,6.5,4.2,9.2c1.9,2.6,4.4,4.8,7.4,6.4c3,1.6,6.7,2.4,11,2.4c4.3,0,7.9-0.8,10.8-2.5
		c2.9-1.7,5.2-3.9,7-6.6c1.8-2.7,3-5.9,3.8-9.4c0.8-3.5,1.2-7.2,1.2-10.9C1072.6,659.8,1072.1,656.3,1071.2,653z"/>
</g>
<path class="st2" d="M206.1,575c-33.6-16.2-95.6-35.7-125.6-39.4c-13-1.6-20,0.1-28.8,11c-8.8,10.9-38,66.4-47.5,92.1
	C-0.4,650.8,0,657,5.4,668.5c11.7,25.1,57.8,62.2,75.7,74.1c17.9,11.8,40.6,11.4,54.1-1.2c3.7-3.4,8.3-8.1,13.6-13.8
	c-2.5,0.4-4.9,0.7-7.4,1c5-5.2,10-10.3,16.4-17.5c4.6-1.8,9.4-5.3,12.9-8.1c17.9-20.9,45-55.3,56.5-76.6
	C238.3,605.5,226.7,584.9,206.1,575"/>
<path class="st3" d="M57.7,683.4c-8-11.3-11.8-24.1-11.8-36.9c0-26.1,15.7-52.1,44.3-63.8c6.9-2.8,13.7-4.1,20.2-4.1
	c21.4,0,40.5,13.7,47.5,33.9c1.6,4.6,2.4,9.5,2.4,14.4c0,14.5-7.1,28.6-18.9,35.5c-9.6,5.6-19.6,8-28.8,8
	c-14.5,0-26.5-6.2-31.7-14.7c-0.1-0.1-0.1-0.2-0.2-0.3c4.6,0.7,9,1,13.3,1c10.4,0,19.6-1.9,26.9-5c7.2-3.2,13.1-7.3,15.7-14.2
	c0.9-2.6,1.4-5.3,1.4-8c0-7.7-3.8-14.5-9.4-19.1c-5.6-4.7-13.1-7.4-21.3-7.4c-7,0-14.5,2-21.7,6.3c-13.8,8.2-22.4,21.2-22.4,35.2
	c0,6.5,1.9,13,5.5,18.9c8.7,14,25.6,21.6,44,21.6c11.8,0,24.3-3.1,36.1-10c17-10,26.1-28.9,26.1-47.9c0-6.4-1-12.9-3.2-19.1
	c-9-25.9-33.5-43.6-61.2-43.6c-8.4,0-17.1,1.7-25.7,5.2c-34,13.9-53.3,45.3-53.3,77.2c0,15.7,4.7,31.5,14.4,45.2
	c17.6,24.4,52.2,37.6,84.2,37.8c6.2,0,12.5-0.6,18.4-1.7c6.6-6.9,21.9-24.7,21.9-24.7c-11.6,9.7-24.3,12.1-40.4,12
	C102.1,714.9,70.9,702.4,57.7,683.4 M92.9,621.4c5.1-3.1,10-4.3,14.3-4.3c5,0,9.3,1.7,12.1,4c2.8,2.4,4.2,5.2,4.2,8
	c0,1-0.2,2.1-0.6,3.2c0,0.5-2.4,3.5-7.7,5.7c-5.2,2.2-12.6,3.8-21.2,3.8c-5,0-10.4-0.5-16-1.7C79.4,633.4,84.2,626.7,92.9,621.4"/>
</svg>
