<?xml version="1.0" encoding="utf-8"?>
<!-- Generator: Adobe Illustrator 21.1.0, SVG Export Plug-In . SVG Version: 6.00 Build 0)  -->
<svg version="1.1" id="Layer_1" xmlns="http://www.w3.org/2000/svg" xmlns:xlink="http://www.w3.org/1999/xlink" x="0px" y="0px"
	 viewBox="0 0 25 25" style="enable-background:new 0 0 25 25;" xml:space="preserve">
<style type="text/css">
	.st0{fill:#FFFFFF;}
</style>
<g>
	<path class="st0" d="M24.8,23.7l-6.1-6.1c1.6-1.9,2.6-4.3,2.6-7C21.3,4.8,16.5,0,10.7,0C4.8,0,0,4.8,0,10.7s4.8,10.7,10.7,10.7
		c2.7,0,5.1-1,7-2.6l6.1,6.1c0.1,0.1,0.3,0.2,0.5,0.2c0.2,0,0.4-0.1,0.5-0.2C25.1,24.5,25.1,24,24.8,23.7z M1.5,10.7
		c0-5.1,4.1-9.2,9.2-9.2c5.1,0,9.2,4.1,9.2,9.2s-4.1,9.2-9.2,9.2C5.6,19.8,1.5,15.7,1.5,10.7z"/>
</g>
</svg>
