<?xml version="1.0" encoding="utf-8"?>
<!-- Generator: Adobe Illustrator 24.0.1, SVG Export Plug-In . SVG Version: 6.00 Build 0)  -->
<svg version="1.1" id="Layer_1" xmlns="http://www.w3.org/2000/svg" xmlns:xlink="http://www.w3.org/1999/xlink" x="0px" y="0px"
	 viewBox="0 0 89 89" style="enable-background:new 0 0 89 89;" xml:space="preserve">
<style type="text/css">
	.st0{fill:#007FA3;}
	.st1{fill:#005F7A;}
	.st2{fill:#FFFFFF;}
</style>
<g>
	<circle class="st0" cx="44.4" cy="44.4" r="43.5"/>
	<path class="st1" d="M18.6,46.4l32.7,40.9c15.7-2.6,30-14.2,35.3-32.1L68.4,34.4L18.6,46.4z"/>
	<path class="st2" d="M52.2,62.8c0,2.7-2.3,5-5,5h-5.4c-2.7,0-5-2.3-5-5V20.1c0-2.7,2.3-5,5-5h5.6c2.7,0,5,2.3,5,5L52.2,62.8z"/>
	<path class="st2" d="M52.3,40.2H36.6l0.1,22.6c0,2.7,2.3,5,5,5h5.6c2.7,0,5-2.3,5-5L52.3,40.2z"/>
	<path class="st2" d="M65.8,33.7c2.7,0,5,2.3,5,5v5.6c0,2.7-2.3,5-5,5l-42.7-0.2c-2.7,0-5-2.3-5-5v-5.4c0-2.7,2.3-5,5-5H65.8z"/>
</g>
</svg>
