<?xml version="1.0" encoding="utf-8"?>
<!-- Generator: Adobe Illustrator 24.0.3, SVG Export Plug-In . SVG Version: 6.00 Build 0)  -->
<svg version="1.1" id="Layer_1" xmlns="http://www.w3.org/2000/svg" xmlns:xlink="http://www.w3.org/1999/xlink" x="0px" y="0px"
	 viewBox="0 0 170 250" style="enable-background:new 0 0 170 250;" xml:space="preserve">
<style type="text/css">
	.st0{fill:#FFFFFF;}
</style>
<g>
	<path class="st0" d="M12.6,199.8c6.8-16.3,23-33.5,48.4-51.6c22.1-15.8,36.4-27.1,42.9-34c10-10.7,15-22.3,15-35
		c0-10.3-2.9-18.9-8.6-25.7S96.4,43.2,85.7,43.2c-14.6,0-24.5,5.4-29.8,16.3c-3,6.3-4.8,16.3-5.4,29.9H3.9
		c0.8-20.7,4.5-37.5,11.3-50.3C28,14.8,50.8,2.6,83.3,2.6c25.8,0,46.4,7.1,61.6,21.4c15.3,14.3,22.9,33.2,22.9,56.8
		c0,18.1-5.4,34.1-16.2,48.1c-7.1,9.3-18.7,19.7-34.9,31.1l-19.2,13.6c-12,8.5-20.2,14.7-24.7,18.5c-4.4,3.8-8.2,8.2-11.2,13.3
		h106.6v42.2H1.2C1.7,230.2,5.4,214.2,12.6,199.8z"/>
</g>
</svg>
