<?xml version="1.0" encoding="utf-8"?>
<!-- Generator: Adobe Illustrator 24.0.3, SVG Export Plug-In . SVG Version: 6.00 Build 0)  -->
<svg version="1.1" id="Layer_1" xmlns="http://www.w3.org/2000/svg" xmlns:xlink="http://www.w3.org/1999/xlink" x="0px" y="0px"
	 viewBox="0 0 170 250" style="enable-background:new 0 0 170 250;" xml:space="preserve">
<style type="text/css">
	.st0{fill:#FFFFFF;}
</style>
<g>
	<path class="st0" d="M47.2,169.3c0,9.7,1.6,17.7,4.7,24c5.8,11.7,16.2,17.5,31.4,17.5c9.3,0,17.4-3.2,24.4-9.6
		c6.9-6.4,10.4-15.6,10.4-27.6c0-15.9-6.4-26.5-19.3-31.8c-7.3-3-18.8-4.5-34.6-4.5v-34c15.4-0.2,26.1-1.7,32.2-4.5
		c10.5-4.7,15.8-14.1,15.8-28.3c0-9.2-2.7-16.7-8.1-22.5c-5.4-5.8-12.9-8.7-22.7-8.7C70.2,39.3,62,42.9,56.8,50
		c-5.3,7.1-7.8,16.6-7.6,28.5H4.9c0.4-12,2.5-23.4,6.2-34.2c3.9-9.4,10-18.2,18.3-26.2c6.2-5.7,13.6-10,22.1-13
		c8.5-3,19-4.5,31.5-4.5c23.1,0,41.7,6,55.9,17.9c14.2,11.9,21.2,28,21.2,48.1c0,14.2-4.2,26.2-12.7,36
		c-5.3,6.1-10.9,10.3-16.7,12.5c4.3,0,10.6,3.7,18.7,11.2c12.1,11.2,18.2,26.6,18.2,46c0,20.4-7.1,38.4-21.2,53.9
		c-14.2,15.5-35.1,23.2-62.8,23.2c-34.2,0-57.9-11.2-71.3-33.5c-7-11.9-10.9-27.4-11.7-46.7H47.2z"/>
</g>
</svg>
